<?xml version="1.0" encoding="UTF-8"?>
<!DOCTYPE svg PUBLIC "-//W3C//DTD SVG 1.1//EN" "http://www.w3.org/Graphics/SVG/1.1/DTD/svg11.dtd">
<!-- Creator: CorelDRAW 2020 (64 Bit) -->
<svg xmlns="http://www.w3.org/2000/svg" xml:space="preserve" width="200mm" height="50mm" version="1.1" style="shape-rendering:geometricPrecision; text-rendering:geometricPrecision; image-rendering:optimizeQuality; fill-rule:evenodd; clip-rule:evenodd"
viewBox="0 0 20000 5000"
 xmlns:xlink="http://www.w3.org/1999/xlink"
 xmlns:xodm="http://www.corel.com/coreldraw/odm/2003"
 xmlns:dc="http://purl.org/dc/elements/1.1/"
 xmlns:cc="http://creativecommons.org/ns#"
 xmlns:rdf="http://www.w3.org/1999/02/22-rdf-syntax-ns#"
 xmlns:svg="http://www.w3.org/2000/svg"
 xmlns:sodipodi="http://sodipodi.sourceforge.net/DTD/sodipodi-0.dtd"
 xmlns:inkscape="http://www.inkscape.org/namespaces/inkscape"
 inkscape:version="1.0 (4035a4fb49, 2020-05-01)"
 sodipodi:docname="ultrasecreto.svg">
 <defs>
  <style type="text/css">
   <![CDATA[
    .str0 {stroke:white;stroke-width:20;stroke-miterlimit:22.9256}
    .fil0 {fill:none}
    .fil1 {fill:lime;fill-rule:nonzero}
    .fil2 {fill:#FF6600;fill-rule:nonzero}
   ]]>
  </style>
 </defs>
 <g id="Camada_x0020_1">
  <metadata id="CorelCorpID_0Corel-Layer"/>
  <sodipodi:namedview inkscape:current-layer="svg3" inkscape:window-maximized="1" inkscape:window-y="-8" inkscape:window-x="-8" inkscape:cy="-25.076779" inkscape:cx="195.52613" inkscape:zoom="1.1160822" showgrid="false" id="namedview5" inkscape:window-height="705" inkscape:window-width="1366" inkscape:pageshadow="2" inkscape:pageopacity="0" guidetolerance="10" gridtolerance="10" objecttolerance="10" borderopacity="1" bordercolor="#666666" pagecolor="#ffffff"/>
  <sodipodi:namedview inkscape:current-layer="svg3" inkscape:window-maximized="1" inkscape:window-y="-8" inkscape:window-x="-8" inkscape:cy="-25.076779" inkscape:cx="195.52613" inkscape:zoom="1.1160822" showgrid="false" id="namedview5" inkscape:window-height="705" inkscape:window-width="1366" inkscape:pageshadow="2" inkscape:pageopacity="0" guidetolerance="10" gridtolerance="10" objecttolerance="10" borderopacity="1" bordercolor="#666666" pagecolor="#ffffff"/>
 </g>
 <g id="Camada_x0020_1_0">
  <metadata id="CorelCorpID_1Corel-Layer"/>
  <rect class="fil0 str0" x="67823.23" y="9837.4" width="55000" height="30000"/>
  <path class="fil1" d="M6862.02 872.14l-496.51 755.1 -496.96 -755.1 -12.31 0 0 1061.19 163.16 0 0 -576.55 345.67 559.18 1.1 0 345 -558.74 0 576.11 163.16 0 0 -1061.19 -12.31 0zm1434.97 1061.19l176.57 0 -488.38 -1060.09 -9.67 0 -488.38 1060.09 176.57 0 70.81 -158.32 491.67 0 70.81 158.32zm-499.37 -298.17l182.95 -405.7 182.5 405.7 -365.45 0zm1960.28 -742.79l0 677.04 -662.3 -692.43 -9.02 0 0 1057.67 163.16 0 0 -677.04 665.17 692.87 6.59 0 0 -1058.11 -163.6 0zm1244.77 1059.21c221.43,0 393.6,-174.15 393.6,-412.29l0 -644.28 -164.48 0 0 643.62c0,143.59 -102.68,248.47 -229.78,248.47 -127.1,0 -228.25,-104.88 -228.25,-248.47l0 -643.62 -163.59 0 0 644.28c0,238.14 171.29,412.29 392.5,412.29zm1709.84 -18.25l176.57 0 -488.38 -1060.09 -9.67 0 -488.38 1060.09 176.57 0 70.81 -158.32 491.67 0 70.81 158.32zm-499.37 -298.17l182.95 -405.7 182.5 405.7 -365.45 0zm1452.12 135.89l0 -876.04 -163.16 0 0 1038.32 626.47 0 0 -162.28 -463.31 0z"/>
  <path class="fil1" d="M984.17 2204.41l-615.4 1.2 0 1886.57 615.4 0c640.98,0 1033.4,-356.05 1033.4,-941.09 0,-590.62 -392.42,-949.07 -1033.4,-946.68zm-7.99 1415.43l-119.48 0 0 -947.08 114.69 0c338.07,0.8 543.87,181.02 543.87,477.14 0,292.51 -204.6,470.74 -539.08,470.74l0 -0.8zm2240.23 520.29c588.62,0 1036.99,-425.58 1036.99,-987.84 0,-567.45 -448.37,-997.03 -1035.8,-997.03 -587.42,0 -1035.79,429.58 -1035.79,997.03 0,562.26 447.57,987.84 1034.6,987.84zm1.19 -477.13c-300.1,0 -529.88,-223.79 -529.88,-514.3 0,-292.12 229.78,-517.1 529.88,-517.1 300.11,0 529.89,224.98 529.89,517.1 0,290.51 -229.78,514.3 -529.89,514.3zm2230.64 469.54c286.92,0 527.09,-113.49 707.31,-277.33l-285.72 -380.43c-121.88,108.69 -263.34,183.82 -421.59,183.82 -269.34,0 -521.89,-215.39 -521.89,-507.51 0,-288.91 242.16,-509.9 532.68,-509.9 139.06,0 292.51,69.13 408.4,174.23l288.12 -368.04c-193.41,-177.43 -454.36,-283.73 -697.72,-287.32 -587.83,0 -1039.79,429.58 -1039.79,987.44 0,591.82 497.52,985.04 1030.2,985.04zm2143.91 -1462.18l0 -465.15 -1223.61 0 0 1886.97 1223.61 0 0 -467.55 -728.09 0 0 -273.33 599.42 0 0 -417.19 -599.42 0 0 -263.75 728.09 0z"/>
  <path class="fil2" d="M8624.3 4118.55c378.03,0 712.91,-222.98 712.91,-582.23 0,-278.93 -195.41,-459.95 -490.33,-584.23 -203.8,-85.52 -337.27,-113.89 -337.27,-200.61 0,-64.33 73.93,-117.08 176.63,-117.08 90.31,0 235.37,43.15 291.72,143.06l288.91 -278.93c-73.92,-186.22 -298.51,-322.09 -586.23,-322.09 -358.45,0 -668.95,232.98 -668.95,559.86 0,284.92 205.01,442.37 443.97,545.47 185.02,82.32 378.04,167.83 378.04,265.34 0,77.12 -103.9,115.89 -210.6,115.89 -157.85,0 -304.5,-70.33 -382.83,-186.22l-303.7 297.31c95.11,207.8 377.23,344.46 687.73,344.46zm2166.29 -1448.19l0 -465.15 -1223.61 0 0 1886.97 1223.61 0 0 -467.55 -728.09 0 0 -273.33 599.42 0 0 -417.19 -599.42 0 0 -263.75 728.09 0zm1226.81 1462.18c286.92,0 527.09,-113.49 707.31,-277.33l-285.72 -380.43c-121.88,108.69 -263.34,183.82 -421.59,183.82 -269.34,0 -521.89,-215.39 -521.89,-507.51 0,-288.91 242.16,-509.9 532.68,-509.9 139.06,0 292.51,69.13 408.4,174.23l288.12 -368.04c-193.41,-177.43 -454.36,-283.73 -697.72,-287.32 -587.83,0 -1039.79,429.58 -1039.79,987.44 0,591.82 497.52,985.04 1030.2,985.04zm2515.95 -40.36l-505.91 -757.66c185.02,-83.92 326.88,-280.93 326.88,-515.9 0,-338.47 -291.71,-613.41 -699.72,-613.41l-716.1 0 2.4 1886.97 499.91 0 0 -819.6 505.91 819.6 586.63 0zm-1094.94 -1436.2l205.4 0c105.9,0 204.61,72.33 204.61,189.41 0,115.89 -97.51,191.02 -204.61,189.82l-205.4 -1.2 0 -378.03zm2497.58 14.38l0 -465.15 -1223.61 0 0 1886.97 1223.61 0 0 -467.55 -728.09 0 0 -273.33 599.42 0 0 -417.19 -599.42 0 0 -263.75 728.09 0zm1571.27 -465.15l-1405.43 0 0 467.55 452.76 0 0 1419.42 501.11 0 0 -1419.42 451.56 0 0 -467.55zm1071.77 1934.92c588.62,0 1036.99,-425.58 1036.99,-987.84 0,-567.45 -448.37,-997.03 -1035.8,-997.03 -587.42,0 -1035.79,429.58 -1035.79,997.03 0,562.26 447.57,987.84 1034.6,987.84zm1.19 -477.13c-300.1,0 -529.88,-223.79 -529.88,-514.3 0,-292.12 229.78,-517.1 529.88,-517.1 300.11,0 529.89,224.98 529.89,517.1 0,290.51 -229.78,514.3 -529.89,514.3z"/>
 </g>
</svg>
